 
<svg version="1.1" xmlns="http://www.w3.org/2000/svg" xmlns:xlink="http://www.w3.org/1999/xlink" x="0px" y="0px"
	 viewBox="0 0 512 512" style="enable-background:new 0 0 512 512;" xml:space="preserve" >
 
		<path d="M469.375,228.044L259.954,19.754L87.863,105.258L0,232.289v161.438l148.522,87.006l194.675,11.513l125.583-85.083
			L512,315.888L469.375,228.044z M245.899,60.237l30.595,163.796L127.25,119.188L245.899,60.237z M101.741,137.932l162.014,113.814
			L74.366,306.422l-41.515-68.891L101.741,137.932z M30,376.532v-85.608l79.738,132.319L30,376.532z M90.394,333.019l171.161-49.414
			L153.901,438.404L90.394,333.019z M180.587,452.576L289.84,295.477l30.892,165.387L180.587,452.576z M280.595,82.594
			l158.272,157.417L345.46,429.862L280.595,82.594z M445.38,386.779l-67.933,46.025l79.813-162.22l22.977,45.471L445.38,386.779z"/>
 
</svg>
